<svg id="Слой_1" data-name="Слой 1" xmlns="http://www.w3.org/2000/svg" viewBox="0 0 61 60.04"><defs><style>.cls-1{fill:none;}.cls-2{fill:#00afb1;}</style></defs><title>Уголок_зел</title><polygon class="cls-1" points="61 12.88 61 12.57 60.69 12.88 61 12.88"/><polygon class="cls-1" points="13.62 60.04 13.62 59.95 13.54 60.04 13.62 60.04"/><polygon class="cls-2" points="13.62 12.88 22.06 12.88 34.94 0 22.95 0 0 22.95 0 34.94 13.62 21.32 13.62 12.88"/><polygon class="cls-2" points="13.62 28.64 0 42.26 0 54.26 13.62 40.64 13.62 28.64"/><polygon class="cls-2" points="41.38 12.88 54.26 0 42.26 0 29.38 12.88 41.38 12.88"/><polygon class="cls-2" points="13.62 59.95 13.62 47.96 1.54 60.04 13.54 60.04 13.62 59.95"/><polygon class="cls-2" points="60.69 12.88 61 12.57 61 0.58 48.7 12.88 60.69 12.88"/><polygon class="cls-2" points="5.26 0 3.63 0 0 0 0 3.63 0 4.63 0 15.62 15.62 0 5.26 0"/></svg>