<svg id="Слой_1" data-name="Слой 1" xmlns="http://www.w3.org/2000/svg" viewBox="0 0 61 61"><defs><style>.cls-1{fill:#4b60b5;}</style></defs><title>Уголок_фиол</title><path class="cls-1" d="M64.25,64.74a.49.49,0,1,0,.49-.49A.49.49,0,0,0,64.25,64.74Z" transform="translate(-4.5 -4.5)"/><path class="cls-1" d="M65.5,10.08V4.5h-14v7.19a54.48,54.48,0,0,1,13.23-1.62Z" transform="translate(-4.5 -4.5)"/><path class="cls-1" d="M4.5,65.5h5.58c0-.25,0-.51,0-.76a54.48,54.48,0,0,1,1.62-13.23H4.5Z" transform="translate(-4.5 -4.5)"/><path class="cls-1" d="M19.08,65.5h9.38c0-.25,0-.51,0-.76A36.11,36.11,0,0,1,31,51.51H21a45.53,45.53,0,0,0-2,13.23C19.07,65,19.08,65.25,19.08,65.5Z" transform="translate(-4.5 -4.5)"/><path class="cls-1" d="M65.5,28.46V19.08h-.76a45.53,45.53,0,0,0-13.23,2V31a36.11,36.11,0,0,1,13.23-2.5Z" transform="translate(-4.5 -4.5)"/><path class="cls-1" d="M35.4,65.5H46.86c0-.25,0-.51,0-.76a17.92,17.92,0,0,1,17.9-17.9l.76,0V35.4h-.76a29.13,29.13,0,0,0-13.23,3.16v13h-13a29.13,29.13,0,0,0-3.16,13.23C35.39,65,35.4,65.25,35.4,65.5Z" transform="translate(-4.5 -4.5)"/><path class="cls-1" d="M51.71,64.74c0,.25,0,.51,0,.76H65.5V51.74c-.25,0-.51,0-.76,0A13,13,0,0,0,51.71,64.74Z" transform="translate(-4.5 -4.5)"/></svg>